<svg width="237" height="81" viewBox="0 0 237 81" fill="none" xmlns="http://www.w3.org/2000/svg">
<path d="M66.0265 11.692C35.2938 7.21877 10.5369 24.3661 2 33.499C2 38.7178 4.56106 53.6286 14.8053 71.5215H51.5509C73.821 71.5215 66.0265 78.7905 105.556 71.5215C118.361 64.2525 117.248 71.5215 138.404 71.5215C159.561 71.5215 148.426 80.4679 169.582 78.7905C190.739 77.113 203.544 75.9947 220.804 71.5215C238.063 67.0483 231.939 57.5427 234.722 33.499C237.506 9.45529 219.133 33.499 189.625 11.692C160.118 -10.115 174.036 11.692 148.426 11.692C122.815 11.692 104.442 17.2835 66.0265 11.692Z" fill="#703F3F" stroke="#945858" stroke-width="4"/>
<path d="M58.3891 47.9551L58.3755 48.0098L58.2387 50.1289L58.1841 51.0996L58.1567 51.3594L58.143 51.6191C58.1704 52.002 58.0975 52.3939 57.9243 52.7949C57.8605 52.9499 57.8104 53.1048 57.7739 53.2598C57.6463 53.8613 57.3273 54.4993 56.8169 55.1738L56.2973 55.9258C56.1606 56.1354 56.0102 56.2767 55.8462 56.3496C55.6001 56.459 55.3768 56.6185 55.1762 56.8281C55.0122 57.0013 54.7798 57.097 54.479 57.1152C53.923 57.1426 53.3169 57.015 52.6606 56.7324C52.3781 56.6048 52.0545 56.4316 51.6899 56.2129L51.2114 55.9258L50.7466 55.625C50.2999 55.3516 49.9354 55.0189 49.6528 54.627C49.0604 53.8158 48.673 53.0273 48.4907 52.2617C48.1899 50.9401 48.0122 49.6003 47.9575 48.2422L47.9028 46.2734L47.8755 44.291V42.5137L47.9028 40.7227V40.627L48.0532 38.9043C48.117 38.2116 48.1808 37.6328 48.2446 37.168C48.4634 35.5638 49.1469 34.1966 50.2954 33.0664C50.5415 32.8294 50.8423 32.5697 51.1977 32.2871L52.1274 31.5762C52.255 31.4759 52.3826 31.403 52.5102 31.3574C53.1665 31.1296 53.7635 31.0566 54.3012 31.1387C54.5565 31.1751 54.7615 31.2891 54.9165 31.4805L55.2583 31.9453L55.4087 32.1777L55.5591 32.3965C55.8052 32.7064 55.9783 33.112 56.0786 33.6133C56.1789 34.0781 56.2153 34.4974 56.188 34.8711C56.1697 35.0169 56.1743 35.1855 56.2016 35.377L56.27 35.8691L56.3657 36.6211L56.393 37.3594C56.4113 37.6602 56.3703 37.8971 56.27 38.0703C56.2427 38.1159 56.2062 38.1387 56.1606 38.1387L56.0923 38.125L56.0512 38.0703L55.8872 37.5645L55.8188 37.2363L55.7505 36.9082L55.6958 36.6758L55.6137 36.4434L55.3403 35.8281L55.0942 35.1992C54.7479 34.388 54.3331 33.7454 53.8501 33.2715C53.7407 33.1621 53.6222 33.153 53.4946 33.2441C53.1574 33.5085 52.9022 33.8184 52.729 34.1738L52.5923 34.4473L52.4692 34.7344C52.3781 34.9531 52.3234 35.1536 52.3052 35.3359L52.3188 35.7324L52.3325 36.1152L52.3052 36.2793L52.2505 36.457C52.214 36.6029 52.1958 36.7214 52.1958 36.8125C52.1958 37.0495 52.1593 37.3548 52.0864 37.7285C52.0226 38.0566 52.0135 38.4395 52.0591 38.877L52.1274 39.8887L52.1684 40.9004L52.2505 42.9102L52.3052 43.8125L52.3462 44.7012L52.4419 46.1367L52.5512 47.5859L52.5786 47.9414L52.5923 48.2969L52.6196 48.7617L52.6743 49.2129L52.811 50.1426C52.8748 50.4889 52.9523 50.7943 53.0434 51.0586C53.1984 51.487 53.367 51.847 53.5493 52.1387C53.7772 52.5033 53.9959 52.7812 54.2055 52.9727C54.4881 53.2461 54.7889 53.2598 55.1079 53.0137C55.6183 52.64 55.9966 52.2936 56.2427 51.9746C56.4614 51.6829 56.6164 51.3138 56.7075 50.8672C56.7986 50.3385 56.9308 49.7279 57.104 49.0352L57.186 48.6113C57.2589 48.1283 57.3546 47.7363 57.4731 47.4355C57.5187 47.3353 57.5552 47.1986 57.5825 47.0254L57.6372 46.5879L57.6509 46.5059L57.6645 46.4238C57.6828 46.36 57.7192 46.319 57.7739 46.3008C57.8377 46.2826 57.8969 46.2962 57.9516 46.3418L58.0063 46.4238L58.0747 46.4922L58.143 46.5879L58.2114 46.6836C58.4393 46.957 58.5167 47.2897 58.4438 47.6816L58.4165 47.7773L58.3891 47.9277V47.9551ZM77.9662 30.2773C77.7656 29.5391 77.36 29.1152 76.7494 29.0059C76.0202 28.8783 75.364 29.0059 74.7806 29.3887C74.1973 29.7897 73.8965 30.3138 73.8783 30.9609L73.7416 34.0098L73.6185 37.0449C73.6003 37.5371 73.3998 37.9245 73.0169 38.207C72.4063 38.6354 71.6771 38.9225 70.8294 39.0684C70.4922 39.1322 70.1048 39.1777 69.6673 39.2051L68.4916 39.2461C68.3366 39.2461 68.2409 39.1868 68.2044 39.0684L68.1771 38.8906V38.7129L68.1498 37.1133C68.1406 36.4753 68.1133 35.9466 68.0677 35.5273L67.7943 32.8887L67.4662 30.25L67.4252 29.8809L67.3841 29.5117C67.3568 29.2292 67.3067 29.0013 67.2337 28.8281C67.0515 28.3633 66.6595 28.0944 66.058 28.0215L65.2923 27.9395L64.5267 27.8984C63.9525 27.9167 63.4694 28.0807 63.0775 28.3906C62.6947 28.6914 62.5169 29.0514 62.5443 29.4707C62.6446 30.9564 62.6901 32.8522 62.681 35.1582L62.6673 37.9883L62.681 40.832L62.7494 44.332L62.7767 47.8457C62.7585 50.4707 62.6537 52.804 62.4623 54.8457C62.4349 55.1647 62.5215 55.4017 62.722 55.5566C62.9317 55.7116 63.155 55.7025 63.3919 55.5293C63.711 55.3014 64.1576 55.2422 64.7318 55.3516C65.7071 55.543 66.3496 55.224 66.6595 54.3945C66.9785 53.5651 67.1927 52.7721 67.3021 52.0156C67.53 50.375 67.7031 48.5156 67.8216 46.4375L67.9447 43.6484L68.0541 40.8594C68.0632 40.4036 68.3047 40.1986 68.7787 40.2441L69.7904 40.3672L70.8021 40.4629C71.5768 40.5176 72.2513 40.4492 72.8255 40.2578C73.1719 40.1393 73.3542 40.2943 73.3724 40.7227L73.4544 42.5L73.5502 44.2637V46.8477C73.5775 47.8411 73.6732 48.6934 73.8373 49.4043L73.8646 49.5684L73.8919 49.7598C73.9284 49.8874 73.9968 49.9329 74.097 49.8965C74.2064 49.8509 74.3431 49.819 74.5072 49.8008L74.9173 49.7598C75.2546 49.7142 75.5098 49.5866 75.683 49.377C75.8835 49.1217 76.1387 48.985 76.4486 48.9668C77.1231 48.9303 77.5423 48.5749 77.7064 47.9004C77.9707 46.7611 78.1849 45.3574 78.349 43.6895L78.6498 40.3262C78.7409 39.0866 78.7865 37.9701 78.7865 36.9766C78.7956 34.4883 78.5222 32.2552 77.9662 30.2773ZM89.176 38.002C89.0575 38.3848 88.9573 38.8223 88.8752 39.3145L88.7112 40.6133L88.6155 41.5977C88.5699 41.9714 88.5152 42.2995 88.4514 42.582L88.4104 42.8828C88.3922 43.0378 88.4605 43.1152 88.6155 43.1152C88.734 43.1152 88.8524 43.1016 88.9709 43.0742L90.2561 42.7871C90.5295 42.7233 90.6298 42.5456 90.5569 42.2539L90.4338 41.8164L90.0647 40.709L89.7776 39.7656L89.4768 38.8086L89.3401 38.4121L89.176 38.002ZM82.8049 52.9727L82.8186 52.5215C82.8095 52.3392 82.8186 52.1341 82.8459 51.9062C82.8824 51.6693 82.9006 51.4323 82.9006 51.1953C82.8733 50.5482 82.9462 49.6003 83.1194 48.3516L83.2834 46.9297L83.4475 45.3027L83.6116 43.6895L83.6936 43.1562L83.7756 42.623L83.9397 40.9551L84.1174 39.2734L84.2268 38.3711L84.3498 37.4551L84.4592 36.6074L84.5823 35.7598C84.6734 35.0853 84.7235 34.5202 84.7327 34.0645L84.7737 33.7363L84.8284 33.4082L85.0334 31.6855C85.0608 31.4303 85.1702 31.2708 85.3616 31.207C85.6259 31.1068 85.8492 30.9108 86.0315 30.6191L86.1135 30.5098L86.1955 30.4141C86.2958 30.3138 86.3869 30.3001 86.469 30.373C86.5601 30.4368 86.6968 30.5052 86.8791 30.5781L87.0979 30.6602L87.2893 30.7695C87.4625 30.888 87.6721 30.9518 87.9182 30.9609C88.5198 30.9701 88.9664 31.3073 89.258 31.9727C89.6317 32.8203 90.0419 34.0462 90.4885 35.6504L90.7619 36.5801L91.008 37.5098L91.1448 37.9062L91.2815 38.2891L91.5412 39.082L91.801 39.8887C92.0198 40.5449 92.1793 41.0827 92.2795 41.502C92.3707 41.8392 92.5074 42.1855 92.6897 42.541L92.8811 43.0195L93.0452 43.498L93.7287 45.207L93.8108 45.3711L93.8518 45.5352C93.87 45.8086 93.9429 46.1094 94.0705 46.4375L94.2346 46.8477L94.426 47.2715C94.5901 47.6178 94.7632 48.028 94.9455 48.502L95.3967 49.7461C95.5425 50.138 95.7157 50.5618 95.9162 51.0176C96.0347 51.291 96.1168 51.5827 96.1623 51.8926C96.1806 52.0202 96.1806 52.1569 96.1623 52.3027C96.1168 52.6491 95.9162 52.8496 95.5608 52.9043C95.4058 52.9316 95.2873 52.8861 95.2053 52.7676L94.8772 52.3164L94.5491 51.8652C94.2847 51.5098 94.0888 51.1908 93.9612 50.9082L93.428 49.8145L92.9084 48.7207C92.5256 47.8822 92.2157 47.1348 91.9787 46.4785L91.6233 45.4668L91.2678 44.4551L91.2268 44.3184L91.1721 44.168C91.1083 44.0039 90.9761 43.9355 90.7756 43.9629C90.0373 44.0632 89.4449 44.0859 88.9983 44.0312C88.6884 43.9857 88.4833 44.0039 88.383 44.0859C88.2828 44.168 88.2099 44.3639 88.1643 44.6738L87.3166 50.0059L87.1799 50.6621L86.8655 52.002C86.7014 52.8223 86.4599 53.4694 86.1409 53.9434C86.0588 54.071 85.995 54.2487 85.9494 54.4766C85.8948 54.7682 85.7079 55.0326 85.3889 55.2695C85.0699 55.4974 84.76 55.6022 84.4592 55.584L83.803 55.5566C83.6298 55.5658 83.4657 55.5202 83.3108 55.4199L83.1194 55.2695L82.928 55.0918C82.7457 54.9186 82.6636 54.668 82.6819 54.3398L82.8049 52.9727ZM110.735 34.0371C110.672 34.584 110.498 35.2721 110.216 36.1016C110.097 36.4297 109.915 36.7168 109.669 36.9629C109.259 37.373 108.867 37.7832 108.493 38.1934C107.864 38.8861 107.09 39.474 106.169 39.957L106.019 40.0391C105.864 40.112 105.777 40.0573 105.759 39.875L105.732 39.6562C105.795 39.082 105.741 38.3984 105.567 37.6055L105.526 37.332L105.513 37.0586L105.444 36.3887C105.417 36.1335 105.367 35.9102 105.294 35.7188L105.267 35.5C105.203 34.7617 104.943 33.7454 104.487 32.4512L104.105 31.3711C103.941 30.9792 103.776 30.6328 103.612 30.332C103.33 29.8581 103.371 29.4115 103.735 28.9922C104.291 28.3633 104.784 27.9805 105.212 27.8438C105.422 27.7708 105.727 27.7161 106.128 27.6797C106.866 27.5612 107.605 27.7936 108.343 28.377C109.181 29.015 109.829 29.8535 110.284 30.8926C110.357 31.0566 110.43 31.2708 110.503 31.5352L110.667 32.2051C110.804 32.6426 110.827 33.2533 110.735 34.0371ZM112.595 33.9551C112.586 33.6908 112.54 33.4219 112.458 33.1484C112.367 32.8112 112.29 32.474 112.226 32.1367C112.053 31.2161 111.711 30.3594 111.2 29.5664C110.626 28.6914 109.933 28.0397 109.122 27.6113C108.922 27.502 108.685 27.4062 108.411 27.3242L107.687 27.1055C106.93 26.8867 106.192 26.8229 105.472 26.9141C104.524 27.0508 103.713 27.4245 103.038 28.0352L102.683 28.377C102.5 28.5866 102.304 28.6139 102.095 28.459C101.803 28.2493 101.443 28.2357 101.015 28.418L100.837 28.4727L100.659 28.541C100.468 28.6139 100.304 28.7279 100.167 28.8828C99.9939 29.0742 99.9392 29.2702 100.003 29.4707L100.071 29.7715L100.126 30.0586C100.418 31.2982 100.545 32.4694 100.509 33.5723L100.523 33.9004L100.564 34.2285L100.591 34.3926L100.618 34.5566L100.673 36.6211L100.7 37.6602L101.042 41.8984C101.06 42.2174 101.065 42.4909 101.056 42.7188C101.019 43.1836 101.006 43.7396 101.015 44.3867L101.056 46.041L101.083 48.502L101.097 50.3203C101.115 51.0039 101.151 51.6146 101.206 52.1523L101.329 53.7793L101.343 53.9707L101.37 54.1621C101.452 54.5267 101.671 54.6908 102.026 54.6543C102.218 54.627 102.464 54.5586 102.765 54.4492L103.435 54.1484C103.708 54.0299 103.941 53.9479 104.132 53.9023C104.25 53.8659 104.369 53.8021 104.487 53.7109L104.788 53.4238L104.925 53.2598L105.062 53.082C105.691 52.362 106.019 51.5553 106.046 50.6621C106.064 49.9694 106.142 49.3177 106.278 48.707C106.379 48.2513 106.392 47.7135 106.319 47.0938C106.274 46.7201 106.274 46.3919 106.319 46.1094C106.383 45.6172 106.392 45.1432 106.347 44.6875L106.306 44.373V44.0449C106.342 43.5436 106.315 42.8509 106.224 41.9668L106.183 41.543C106.174 41.3151 106.288 41.1829 106.525 41.1465L106.798 41.1055C107.172 41.0872 107.55 40.9733 107.933 40.7637C108.288 40.5723 108.566 40.4355 108.767 40.3535C109.35 40.1348 109.915 39.752 110.462 39.2051L111.665 37.9336C112.103 37.4688 112.353 37.0358 112.417 36.6348L112.458 36.498L112.526 36.375C112.609 36.2201 112.645 36.0286 112.636 35.8008L112.595 33.9551ZM127.92 26.9551L127.223 26.873L124.229 26.7227L123.121 26.6816L122 26.6953C120.578 26.7956 119.12 27.0508 117.625 27.4609C117.115 27.6068 116.559 27.7161 115.957 27.7891L115.629 27.8438L115.314 27.8984C114.567 28.099 113.674 28.2949 112.635 28.4863L112.252 28.5547L111.869 28.6094C111.623 28.6549 111.527 28.7279 111.582 28.8281C111.609 28.8828 111.655 28.9193 111.719 28.9375L111.883 28.9648C112.658 29.0286 113.245 29.0332 113.646 28.9785C114.066 28.9238 114.512 28.8874 114.986 28.8691L115.697 28.8555H116.422C116.987 28.8372 117.465 28.7962 117.857 28.7324L118.021 28.7188C118.14 28.7279 118.208 28.7871 118.227 28.8965L118.254 29.1289C118.245 30.1589 118.286 31.1341 118.377 32.0547L118.404 32.6699L118.391 33.2852L118.418 34.4883L118.459 35.6914L118.514 36.9492L118.527 38.207L118.541 39.7383L118.527 41.2559L118.459 44.9473L118.404 45.8359L118.363 46.7109L118.377 48.9668L118.391 51.2227C118.391 52.3711 118.459 53.2689 118.596 53.916L118.664 54.4629L118.746 55.0098L118.828 55.3242L118.924 55.625C119.006 55.8893 119.179 56.026 119.443 56.0352C119.589 56.0443 119.758 56.0762 119.949 56.1309C120.186 56.1947 120.437 56.1855 120.701 56.1035L121.262 55.8984C121.48 55.8073 121.686 55.748 121.877 55.7207C122.287 55.6569 122.565 55.4336 122.711 55.0508C122.848 54.6771 123.076 54.2715 123.395 53.834C123.632 53.4967 123.791 53.0592 123.873 52.5215L124.023 51.3594L124.201 49.8555C124.238 49.5911 124.251 49.2858 124.242 48.9395L124.215 48.0371C124.197 47.3171 124.156 46.6745 124.092 46.1094L124.01 45.3164L123.955 44.5234C123.946 43.3294 123.837 42.1035 123.627 40.8457C123.581 40.5449 123.549 40.1576 123.531 39.6836L123.477 38.5078L123.449 37.7559L123.422 36.9902L123.326 35.5L123.271 34.0098C123.271 33.791 123.244 33.6178 123.189 33.4902C122.98 33.0345 122.916 32.5605 122.998 32.0684L123.012 31.8086L122.998 31.5352C122.971 31.2617 122.975 31.0293 123.012 30.8379C123.066 30.61 123.057 30.3001 122.984 29.9082L122.902 29.3613L122.848 28.8008C122.829 28.6458 122.907 28.5592 123.08 28.541L123.258 28.5273C124.06 28.4727 124.812 28.3542 125.514 28.1719C126.27 27.9805 126.867 27.8984 127.305 27.9258L127.865 27.8984L128.412 27.8164C128.658 27.7799 128.781 27.6478 128.781 27.4199C128.781 27.2741 128.681 27.1693 128.48 27.1055L127.92 26.9551ZM143.901 35.4863C141.431 34.8574 139.148 34.7344 137.052 35.1172C136.45 35.2266 136.063 35.0033 135.89 34.4473L135.725 33.8457L135.52 32.7109L135.315 31.5625C135.151 30.6602 134.937 29.9173 134.673 29.334C134.527 29.0059 134.655 28.8327 135.056 28.8145L135.835 28.8008L136.614 28.7734C137.207 28.737 137.717 28.6504 138.145 28.5137L138.323 28.4727L138.501 28.418C138.628 28.3633 138.683 28.263 138.665 28.1172C138.647 27.9805 138.569 27.8939 138.432 27.8574L138.255 27.8164H138.063L132.567 27.6113C132.321 27.6113 132.066 27.7572 131.802 28.0488C131.537 28.3314 131.405 28.6048 131.405 28.8691L131.446 30.8242L131.487 32.7793C131.515 34.3197 131.505 35.623 131.46 36.6895C131.423 37.6921 131.442 38.8633 131.515 40.2031L131.61 41.9531L131.72 43.7031C131.902 46.6289 131.879 48.9668 131.651 50.7168C131.533 51.4186 131.82 52.0202 132.513 52.5215C133.196 53.0137 133.871 53.1276 134.536 52.8633C135.885 52.3164 137.881 51.9609 140.524 51.7969L141.099 51.7695L141.673 51.7559C142.119 51.7194 142.498 51.6283 142.807 51.4824L142.931 51.4141L143.054 51.332C143.127 51.2591 143.154 51.1725 143.136 51.0723C143.108 50.972 143.049 50.8945 142.958 50.8398C142.867 50.7852 142.776 50.7669 142.684 50.7852C142.356 50.8398 141.983 50.8535 141.563 50.8262L140.429 50.7168C139.472 50.6165 138.72 50.653 138.173 50.8262C137.726 50.972 137.599 50.8171 137.79 50.3613C138.109 49.6048 138.237 48.8118 138.173 47.9824L138.091 46.6016L138.022 45.2207L137.968 44.3457L137.913 43.4844C137.858 42.8099 137.735 42.2493 137.544 41.8027C137.261 41.1465 137.052 40.3809 136.915 39.5059L136.778 38.3301L136.669 37.1543C136.641 36.7897 136.796 36.6029 137.134 36.5938C137.516 36.5938 138.072 36.5573 138.802 36.4844L139.636 36.416L140.47 36.375H142.165C142.83 36.3659 143.395 36.3021 143.86 36.1836C144.115 36.1107 144.252 36.0104 144.27 35.8828C144.298 35.7552 144.266 35.6595 144.175 35.5957L144.038 35.5273L143.901 35.4863ZM153.388 38.3574L153.402 38.8496C153.411 38.9954 153.439 39.1367 153.484 39.2734C153.53 39.4375 153.63 39.4876 153.785 39.4238L154.236 39.2324L154.674 39.0137C155.002 38.8496 155.271 38.6628 155.48 38.4531C155.763 38.1888 155.922 37.8926 155.959 37.5645C156.041 36.7988 156.009 36.1243 155.863 35.541C155.617 34.6113 155.079 33.8776 154.25 33.3398C154.013 33.194 153.789 33.1667 153.58 33.2578L153.429 33.3125L153.265 33.3672C153.138 33.4128 153.079 33.5085 153.088 33.6543L153.306 36.7168L153.402 38.3574H153.388ZM153.594 43.457C153.411 44.6602 153.343 45.6901 153.388 46.5469C153.398 46.793 153.375 47.0846 153.32 47.4219C153.274 47.6953 153.256 48.0007 153.265 48.3379L153.238 49.3086L153.183 50.252L153.156 54.2578C153.156 54.6953 153.092 55.0508 152.965 55.3242L152.855 55.5703L152.76 55.8301C152.687 56.0397 152.609 56.2038 152.527 56.3223L152.418 56.4863L152.308 56.6367C152.117 56.8555 151.885 56.9056 151.611 56.7871L150.845 56.4316L150.08 56.0762C149.569 55.8483 149.278 55.4154 149.205 54.7773L149.109 53.6973L149.013 52.7129L148.959 51.7285L148.918 50.8809L148.822 50.0332L148.521 47.3672C148.467 46.9206 148.421 46.3646 148.385 45.6992L148.275 44.0449C148.202 42.9694 148.17 41.7161 148.179 40.2852L148.207 38.4121L148.234 36.5391L148.275 34.1738L148.316 31.8223C148.325 31.3483 148.457 30.9564 148.713 30.6465C148.931 30.3822 149.196 30.25 149.506 30.25C149.898 30.2591 150.189 30.2819 150.381 30.3184L151.023 30.4414L151.666 30.5781C151.921 30.6328 152.112 30.7878 152.24 31.043C152.422 31.4167 152.605 31.6901 152.787 31.8633L152.869 31.9727L152.924 32.0957C153.042 32.3327 153.233 32.4238 153.498 32.3691L153.607 32.3555L153.717 32.3281C154.154 32.1732 154.619 32.2507 155.111 32.5605C155.585 32.8522 156.114 33.4219 156.697 34.2695C157.125 34.8802 157.39 35.4954 157.49 36.1152C157.627 36.9538 157.499 37.7467 157.107 38.4941C157.025 38.6582 156.888 38.8496 156.697 39.0684L156.478 39.3418L156.273 39.6289C156.182 39.7565 156.023 39.875 155.795 39.9844L155.439 40.1348C155.22 40.2441 155.166 40.4036 155.275 40.6133L155.603 41.2969L155.959 41.9805L156.424 42.7324L156.888 43.4707L156.998 43.6348L157.094 43.7852C157.403 44.3594 157.823 45.0612 158.351 45.8906L158.994 46.916L159.65 47.9414L159.869 48.2559C160.097 48.5475 160.343 48.8984 160.607 49.3086L161.304 50.3887L162.152 51.7285C162.325 52.002 162.471 52.2982 162.59 52.6172C162.726 52.9909 162.745 53.2917 162.644 53.5195C162.608 53.6198 162.603 53.7246 162.631 53.834C162.667 53.9798 162.663 54.1348 162.617 54.2988L162.549 54.5176L162.467 54.7363C162.439 54.8184 162.375 54.8776 162.275 54.9141C162.029 55.0143 161.874 55.0553 161.81 55.0371C161.737 55.0189 161.623 54.9049 161.469 54.6953L161.222 54.3262C161.113 54.1165 160.963 53.9388 160.771 53.793C160.562 53.6289 160.37 53.4102 160.197 53.1367L159.568 52.1797L159.363 51.9199C159.108 51.6465 158.807 51.2773 158.461 50.8125L158.037 50.2383L157.613 49.6777C156.966 48.8665 156.469 48.1875 156.123 47.6406L155.521 46.7246L154.906 45.8223C154.569 45.3301 154.273 44.806 154.017 44.25L153.826 43.8535L153.594 43.457ZM185.72 42.1445C185.593 40.2214 184.973 38.5853 183.861 37.2363C183.004 36.1973 181.915 35.6641 180.593 35.6367L180.347 35.6641L180.087 35.6914C179.887 35.7188 179.778 35.6914 179.759 35.6094C179.732 35.4818 179.787 35.3451 179.923 35.1992L180.128 35.0078L180.334 34.8438C181.482 33.8047 182.302 32.7337 182.794 31.6309C183.232 30.6738 183.159 29.8262 182.576 29.0879C182.047 28.4225 181.391 28.1217 180.607 28.1855C179.203 28.2858 178.091 28.8691 177.271 29.9355L177.175 30.0586L177.08 30.1816C177.025 30.291 177.034 30.3913 177.107 30.4824C177.18 30.5553 177.276 30.5781 177.394 30.5508L177.544 30.5098L177.695 30.4277L178.337 30.0723C178.593 29.9264 178.807 29.8216 178.98 29.7578L179.363 29.5938L179.773 29.4434C180.083 29.3704 180.32 29.4115 180.484 29.5664C180.63 29.694 180.675 29.9082 180.621 30.209L180.511 30.6055L180.375 30.9883C179.946 32.2279 179.176 33.5312 178.064 34.8984C177.699 35.3451 177.626 35.7643 177.845 36.1562C177.982 36.4023 178.192 36.5391 178.474 36.5664L178.638 36.5801L178.802 36.5938C178.921 36.6029 179.007 36.6211 179.062 36.6484L179.363 36.6895L179.609 36.7031C179.782 36.7305 179.919 36.776 180.019 36.8398C181.25 37.6693 181.769 38.7676 181.578 40.1348C181.131 43.3887 179.682 46.5788 177.23 49.7051L176.123 51.0312L175.029 52.3574L174.906 52.5078L174.81 52.6719C174.765 52.8086 174.81 52.9089 174.947 52.9727C175.339 53.1458 175.845 53.278 176.464 53.3691C177.531 53.5241 178.602 53.237 179.677 52.5078L180.894 51.6602C181.332 51.332 181.71 51.0221 182.029 50.7305C182.831 49.9831 183.41 49.1719 183.765 48.2969C183.875 48.0234 184.057 47.6543 184.312 47.1895L184.613 46.6562L184.886 46.0957C185.524 44.6738 185.802 43.3568 185.72 42.1445Z" fill="white"/>
</svg>
