<svg width="237" height="81" viewBox="0 0 237 81" fill="none" xmlns="http://www.w3.org/2000/svg">
<path d="M66.0265 11.692C35.2938 7.21877 10.5369 24.3661 2 33.499C2 38.7178 4.56106 53.6286 14.8053 71.5215H51.5509C73.821 71.5215 66.0265 78.7905 105.556 71.5215C118.361 64.2525 117.248 71.5215 138.404 71.5215C159.561 71.5215 148.426 80.4679 169.582 78.7905C190.739 77.113 203.544 75.9947 220.804 71.5215C238.063 67.0483 231.939 57.5427 234.722 33.499C237.506 9.45529 219.133 33.499 189.625 11.692C160.118 -10.115 174.036 11.692 148.426 11.692C122.815 11.692 104.442 17.2835 66.0265 11.692Z" fill="#703F3F" stroke="#945858" stroke-width="4"/>
</svg>
