<svg width="237" height="81" viewBox="0 0 237 81" fill="none" xmlns="http://www.w3.org/2000/svg">
<path d="M66.0265 11.692C35.2938 7.21877 10.5369 24.3661 2 33.499C2 38.7178 4.56106 53.6286 14.8053 71.5215H51.5509C73.821 71.5215 66.0265 78.7905 105.556 71.5215C118.361 64.2525 117.248 71.5215 138.404 71.5215C159.561 71.5215 148.426 80.4679 169.582 78.7905C190.739 77.113 203.544 75.9947 220.804 71.5215C238.063 67.0483 231.939 57.5427 234.722 33.499C237.506 9.45529 219.133 33.499 189.625 11.692C160.118 -10.115 174.036 11.692 148.426 11.692C122.815 11.692 104.442 17.2835 66.0265 11.692Z" fill="#703F3F" stroke="#945858" stroke-width="4"/>
<path d="M59.5786 47.9551L59.5649 48.0098L59.4282 50.1289L59.3735 51.0996L59.3462 51.3594L59.3325 51.6191C59.3598 52.002 59.2869 52.3939 59.1137 52.7949C59.0499 52.9499 58.9998 53.1048 58.9634 53.2598C58.8358 53.8613 58.5167 54.4993 58.0063 55.1738L57.4868 55.9258C57.3501 56.1354 57.1997 56.2767 57.0356 56.3496C56.7895 56.459 56.5662 56.6185 56.3657 56.8281C56.2016 57.0013 55.9692 57.097 55.6684 57.1152C55.1124 57.1426 54.5063 57.015 53.8501 56.7324C53.5675 56.6048 53.244 56.4316 52.8794 56.2129L52.4009 55.9258L51.936 55.625C51.4894 55.3516 51.1248 55.0189 50.8423 54.627C50.2498 53.8158 49.8624 53.0273 49.6802 52.2617C49.3794 50.9401 49.2016 49.6003 49.1469 48.2422L49.0923 46.2734L49.0649 44.291V42.5137L49.0923 40.7227V40.627L49.2427 38.9043C49.3065 38.2116 49.3703 37.6328 49.4341 37.168C49.6528 35.5638 50.3364 34.1966 51.4848 33.0664C51.7309 32.8294 52.0317 32.5697 52.3872 32.2871L53.3169 31.5762C53.4445 31.4759 53.5721 31.403 53.6997 31.3574C54.3559 31.1296 54.9529 31.0566 55.4907 31.1387C55.7459 31.1751 55.951 31.2891 56.1059 31.4805L56.4477 31.9453L56.5981 32.1777L56.7485 32.3965C56.9946 32.7064 57.1678 33.112 57.268 33.6133C57.3683 34.0781 57.4048 34.4974 57.3774 34.8711C57.3592 35.0169 57.3637 35.1855 57.3911 35.377L57.4594 35.8691L57.5552 36.6211L57.5825 37.3594C57.6007 37.6602 57.5597 37.8971 57.4594 38.0703C57.4321 38.1159 57.3956 38.1387 57.3501 38.1387L57.2817 38.125L57.2407 38.0703L57.0766 37.5645L57.0083 37.2363L56.9399 36.9082L56.8852 36.6758L56.8032 36.4434L56.5298 35.8281L56.2837 35.1992C55.9373 34.388 55.5226 33.7454 55.0395 33.2715C54.9302 33.1621 54.8117 33.153 54.6841 33.2441C54.3468 33.5085 54.0916 33.8184 53.9184 34.1738L53.7817 34.4473L53.6587 34.7344C53.5675 34.9531 53.5128 35.1536 53.4946 35.3359L53.5083 35.7324L53.5219 36.1152L53.4946 36.2793L53.4399 36.457C53.4035 36.6029 53.3852 36.7214 53.3852 36.8125C53.3852 37.0495 53.3488 37.3548 53.2759 37.7285C53.2121 38.0566 53.2029 38.4395 53.2485 38.877L53.3169 39.8887L53.3579 40.9004L53.4399 42.9102L53.4946 43.8125L53.5356 44.7012L53.6313 46.1367L53.7407 47.5859L53.768 47.9414L53.7817 48.2969L53.8091 48.7617L53.8637 49.2129L54.0005 50.1426C54.0643 50.4889 54.1417 50.7943 54.2329 51.0586C54.3878 51.487 54.5565 51.847 54.7387 52.1387C54.9666 52.5033 55.1854 52.7812 55.395 52.9727C55.6775 53.2461 55.9783 53.2598 56.2973 53.0137C56.8078 52.64 57.186 52.2936 57.4321 51.9746C57.6509 51.6829 57.8058 51.3138 57.8969 50.8672C57.9881 50.3385 58.1203 49.7279 58.2934 49.0352L58.3755 48.6113C58.4484 48.1283 58.5441 47.7363 58.6626 47.4355C58.7081 47.3353 58.7446 47.1986 58.7719 47.0254L58.8266 46.5879L58.8403 46.5059L58.854 46.4238C58.8722 46.36 58.9087 46.319 58.9634 46.3008C59.0272 46.2826 59.0864 46.2962 59.1411 46.3418L59.1958 46.4238L59.2641 46.4922L59.3325 46.5879L59.4009 46.6836C59.6287 46.957 59.7062 47.2897 59.6333 47.6816L59.6059 47.7773L59.5786 47.9277V47.9551ZM79.1556 30.2773C78.9551 29.5391 78.5495 29.1152 77.9388 29.0059C77.2097 28.8783 76.5534 29.0059 75.9701 29.3887C75.3867 29.7897 75.086 30.3138 75.0677 30.9609L74.931 34.0098L74.808 37.0449C74.7897 37.5371 74.5892 37.9245 74.2064 38.207C73.5957 38.6354 72.8666 38.9225 72.0189 39.0684C71.6817 39.1322 71.2943 39.1777 70.8568 39.2051L69.681 39.2461C69.5261 39.2461 69.4304 39.1868 69.3939 39.0684L69.3666 38.8906V38.7129L69.3392 37.1133C69.3301 36.4753 69.3028 35.9466 69.2572 35.5273L68.9837 32.8887L68.6556 30.25L68.6146 29.8809L68.5736 29.5117C68.5462 29.2292 68.4961 29.0013 68.4232 28.8281C68.2409 28.3633 67.849 28.0944 67.2474 28.0215L66.4818 27.9395L65.7162 27.8984C65.1419 27.9167 64.6589 28.0807 64.2669 28.3906C63.8841 28.6914 63.7064 29.0514 63.7337 29.4707C63.834 30.9564 63.8796 32.8522 63.8705 35.1582L63.8568 37.9883L63.8705 40.832L63.9388 44.332L63.9662 47.8457C63.9479 50.4707 63.8431 52.804 63.6517 54.8457C63.6244 55.1647 63.711 55.4017 63.9115 55.5566C64.1211 55.7116 64.3444 55.7025 64.5814 55.5293C64.9004 55.3014 65.347 55.2422 65.9212 55.3516C66.8965 55.543 67.5391 55.224 67.849 54.3945C68.168 53.5651 68.3822 52.7721 68.4916 52.0156C68.7194 50.375 68.8926 48.5156 69.0111 46.4375L69.1341 43.6484L69.2435 40.8594C69.2526 40.4036 69.4942 40.1986 69.9681 40.2441L70.9798 40.3672L71.9916 40.4629C72.7663 40.5176 73.4408 40.4492 74.015 40.2578C74.3613 40.1393 74.5436 40.2943 74.5619 40.7227L74.6439 42.5L74.7396 44.2637V46.8477C74.7669 47.8411 74.8627 48.6934 75.0267 49.4043L75.0541 49.5684L75.0814 49.7598C75.1179 49.8874 75.1862 49.9329 75.2865 49.8965C75.3959 49.8509 75.5326 49.819 75.6966 49.8008L76.1068 49.7598C76.444 49.7142 76.6992 49.5866 76.8724 49.377C77.0729 49.1217 77.3281 48.985 77.638 48.9668C78.3125 48.9303 78.7318 48.5749 78.8959 47.9004C79.1602 46.7611 79.3744 45.3574 79.5384 43.6895L79.8392 40.3262C79.9304 39.0866 79.9759 37.9701 79.9759 36.9766C79.985 34.4883 79.7116 32.2552 79.1556 30.2773ZM90.3655 38.002C90.247 38.3848 90.1467 38.8223 90.0647 39.3145L89.9006 40.6133L89.8049 41.5977C89.7593 41.9714 89.7047 42.2995 89.6409 42.582L89.5998 42.8828C89.5816 43.0378 89.65 43.1152 89.8049 43.1152C89.9234 43.1152 90.0419 43.1016 90.1604 43.0742L91.4455 42.7871C91.719 42.7233 91.8192 42.5456 91.7463 42.2539L91.6233 41.8164L91.2541 40.709L90.967 39.7656L90.6662 38.8086L90.5295 38.4121L90.3655 38.002ZM83.9944 52.9727L84.008 52.5215C83.9989 52.3392 84.008 52.1341 84.0354 51.9062C84.0718 51.6693 84.0901 51.4323 84.0901 51.1953C84.0627 50.5482 84.1356 49.6003 84.3088 48.3516L84.4729 46.9297L84.6369 45.3027L84.801 43.6895L84.883 43.1562L84.9651 42.623L85.1291 40.9551L85.3069 39.2734L85.4162 38.3711L85.5393 37.4551L85.6487 36.6074L85.7717 35.7598C85.8629 35.0853 85.913 34.5202 85.9221 34.0645L85.9631 33.7363L86.0178 33.4082L86.2229 31.6855C86.2502 31.4303 86.3596 31.2708 86.551 31.207C86.8153 31.1068 87.0386 30.9108 87.2209 30.6191L87.303 30.5098L87.385 30.4141C87.4853 30.3138 87.5764 30.3001 87.6584 30.373C87.7496 30.4368 87.8863 30.5052 88.0686 30.5781L88.2873 30.6602L88.4787 30.7695C88.6519 30.888 88.8616 30.9518 89.1077 30.9609C89.7092 30.9701 90.1558 31.3073 90.4475 31.9727C90.8212 32.8203 91.2313 34.0462 91.678 35.6504L91.9514 36.5801L92.1975 37.5098L92.3342 37.9062L92.4709 38.2891L92.7307 39.082L92.9905 39.8887C93.2092 40.5449 93.3687 41.0827 93.469 41.502C93.5601 41.8392 93.6968 42.1855 93.8791 42.541L94.0705 43.0195L94.2346 43.498L94.9182 45.207L95.0002 45.3711L95.0412 45.5352C95.0595 45.8086 95.1324 46.1094 95.26 46.4375L95.4241 46.8477L95.6155 47.2715C95.7795 47.6178 95.9527 48.028 96.135 48.502L96.5862 49.7461C96.732 50.138 96.9052 50.5618 97.1057 51.0176C97.2242 51.291 97.3062 51.5827 97.3518 51.8926C97.37 52.0202 97.37 52.1569 97.3518 52.3027C97.3062 52.6491 97.1057 52.8496 96.7502 52.9043C96.5953 52.9316 96.4768 52.8861 96.3948 52.7676L96.0666 52.3164L95.7385 51.8652C95.4742 51.5098 95.2782 51.1908 95.1506 50.9082L94.6174 49.8145L94.0979 48.7207C93.7151 47.8822 93.4052 47.1348 93.1682 46.4785L92.8127 45.4668L92.4573 44.4551L92.4162 44.3184L92.3616 44.168C92.2978 44.0039 92.1656 43.9355 91.9651 43.9629C91.2268 44.0632 90.6343 44.0859 90.1877 44.0312C89.8778 43.9857 89.6728 44.0039 89.5725 44.0859C89.4722 44.168 89.3993 44.3639 89.3537 44.6738L88.5061 50.0059L88.3694 50.6621L88.0549 52.002C87.8909 52.8223 87.6493 53.4694 87.3303 53.9434C87.2483 54.071 87.1845 54.2487 87.1389 54.4766C87.0842 54.7682 86.8974 55.0326 86.5784 55.2695C86.2593 55.4974 85.9494 55.6022 85.6487 55.584L84.9924 55.5566C84.8192 55.5658 84.6552 55.5202 84.5002 55.4199L84.3088 55.2695L84.1174 55.0918C83.9351 54.9186 83.8531 54.668 83.8713 54.3398L83.9944 52.9727ZM111.925 34.0371C111.861 34.584 111.688 35.2721 111.405 36.1016C111.287 36.4297 111.105 36.7168 110.859 36.9629C110.448 37.373 110.056 37.7832 109.683 38.1934C109.054 38.8861 108.279 39.474 107.359 39.957L107.208 40.0391C107.053 40.112 106.967 40.0573 106.948 39.875L106.921 39.6562C106.985 39.082 106.93 38.3984 106.757 37.6055L106.716 37.332L106.702 37.0586L106.634 36.3887C106.607 36.1335 106.556 35.9102 106.484 35.7188L106.456 35.5C106.392 34.7617 106.133 33.7454 105.677 32.4512L105.294 31.3711C105.13 30.9792 104.966 30.6328 104.802 30.332C104.519 29.8581 104.56 29.4115 104.925 28.9922C105.481 28.3633 105.973 27.9805 106.401 27.8438C106.611 27.7708 106.916 27.7161 107.317 27.6797C108.056 27.5612 108.794 27.7936 109.532 28.377C110.371 29.015 111.018 29.8535 111.474 30.8926C111.547 31.0566 111.62 31.2708 111.692 31.5352L111.857 32.2051C111.993 32.6426 112.016 33.2533 111.925 34.0371ZM113.784 33.9551C113.775 33.6908 113.73 33.4219 113.648 33.1484C113.556 32.8112 113.479 32.474 113.415 32.1367C113.242 31.2161 112.9 30.3594 112.39 29.5664C111.816 28.6914 111.123 28.0397 110.312 27.6113C110.111 27.502 109.874 27.4062 109.601 27.3242L108.876 27.1055C108.12 26.8867 107.381 26.8229 106.661 26.9141C105.713 27.0508 104.902 27.4245 104.228 28.0352L103.872 28.377C103.69 28.5866 103.494 28.6139 103.284 28.459C102.993 28.2493 102.633 28.2357 102.204 28.418L102.026 28.4727L101.849 28.541C101.657 28.6139 101.493 28.7279 101.357 28.8828C101.183 29.0742 101.129 29.2702 101.192 29.4707L101.261 29.7715L101.316 30.0586C101.607 31.2982 101.735 32.4694 101.698 33.5723L101.712 33.9004L101.753 34.2285L101.78 34.3926L101.808 34.5566L101.862 36.6211L101.89 37.6602L102.232 41.8984C102.25 42.2174 102.254 42.4909 102.245 42.7188C102.209 43.1836 102.195 43.7396 102.204 44.3867L102.245 46.041L102.273 48.502L102.286 50.3203C102.304 51.0039 102.341 51.6146 102.396 52.1523L102.519 53.7793L102.532 53.9707L102.56 54.1621C102.642 54.5267 102.86 54.6908 103.216 54.6543C103.407 54.627 103.653 54.5586 103.954 54.4492L104.624 54.1484C104.898 54.0299 105.13 53.9479 105.321 53.9023C105.44 53.8659 105.558 53.8021 105.677 53.7109L105.978 53.4238L106.114 53.2598L106.251 53.082C106.88 52.362 107.208 51.5553 107.235 50.6621C107.254 49.9694 107.331 49.3177 107.468 48.707C107.568 48.2513 107.582 47.7135 107.509 47.0938C107.463 46.7201 107.463 46.3919 107.509 46.1094C107.573 45.6172 107.582 45.1432 107.536 44.6875L107.495 44.373V44.0449C107.532 43.5436 107.504 42.8509 107.413 41.9668L107.372 41.543C107.363 41.3151 107.477 41.1829 107.714 41.1465L107.987 41.1055C108.361 41.0872 108.739 40.9733 109.122 40.7637C109.478 40.5723 109.756 40.4355 109.956 40.3535C110.54 40.1348 111.105 39.752 111.651 39.2051L112.855 37.9336C113.292 37.4688 113.543 37.0358 113.607 36.6348L113.648 36.498L113.716 36.375C113.798 36.2201 113.834 36.0286 113.825 35.8008L113.784 33.9551ZM129.109 26.9551L128.412 26.873L125.418 26.7227L124.311 26.6816L123.189 26.6953C121.768 26.7956 120.309 27.0508 118.814 27.4609C118.304 27.6068 117.748 27.7161 117.146 27.7891L116.818 27.8438L116.504 27.8984C115.757 28.099 114.863 28.2949 113.824 28.4863L113.441 28.5547L113.059 28.6094C112.812 28.6549 112.717 28.7279 112.771 28.8281C112.799 28.8828 112.844 28.9193 112.908 28.9375L113.072 28.9648C113.847 29.0286 114.435 29.0332 114.836 28.9785C115.255 28.9238 115.702 28.8874 116.176 28.8691L116.887 28.8555H117.611C118.176 28.8372 118.655 28.7962 119.047 28.7324L119.211 28.7188C119.329 28.7279 119.398 28.7871 119.416 28.8965L119.443 29.1289C119.434 30.1589 119.475 31.1341 119.566 32.0547L119.594 32.6699L119.58 33.2852L119.607 34.4883L119.648 35.6914L119.703 36.9492L119.717 38.207L119.73 39.7383L119.717 41.2559L119.648 44.9473L119.594 45.8359L119.553 46.7109L119.566 48.9668L119.58 51.2227C119.58 52.3711 119.648 53.2689 119.785 53.916L119.854 54.4629L119.936 55.0098L120.018 55.3242L120.113 55.625C120.195 55.8893 120.368 56.026 120.633 56.0352C120.779 56.0443 120.947 56.0762 121.139 56.1309C121.376 56.1947 121.626 56.1855 121.891 56.1035L122.451 55.8984C122.67 55.8073 122.875 55.748 123.066 55.7207C123.477 55.6569 123.755 55.4336 123.9 55.0508C124.037 54.6771 124.265 54.2715 124.584 53.834C124.821 53.4967 124.98 53.0592 125.062 52.5215L125.213 51.3594L125.391 49.8555C125.427 49.5911 125.441 49.2858 125.432 48.9395L125.404 48.0371C125.386 47.3171 125.345 46.6745 125.281 46.1094L125.199 45.3164L125.145 44.5234C125.135 43.3294 125.026 42.1035 124.816 40.8457C124.771 40.5449 124.739 40.1576 124.721 39.6836L124.666 38.5078L124.639 37.7559L124.611 36.9902L124.516 35.5L124.461 34.0098C124.461 33.791 124.434 33.6178 124.379 33.4902C124.169 33.0345 124.105 32.5605 124.188 32.0684L124.201 31.8086L124.188 31.5352C124.16 31.2617 124.165 31.0293 124.201 30.8379C124.256 30.61 124.247 30.3001 124.174 29.9082L124.092 29.3613L124.037 28.8008C124.019 28.6458 124.096 28.5592 124.27 28.541L124.447 28.5273C125.249 28.4727 126.001 28.3542 126.703 28.1719C127.46 27.9805 128.057 27.8984 128.494 27.9258L129.055 27.8984L129.602 27.8164C129.848 27.7799 129.971 27.6478 129.971 27.4199C129.971 27.2741 129.87 27.1693 129.67 27.1055L129.109 26.9551ZM145.091 35.4863C142.621 34.8574 140.337 34.7344 138.241 35.1172C137.64 35.2266 137.252 35.0033 137.079 34.4473L136.915 33.8457L136.71 32.7109L136.505 31.5625C136.341 30.6602 136.127 29.9173 135.862 29.334C135.716 29.0059 135.844 28.8327 136.245 28.8145L137.024 28.8008L137.804 28.7734C138.396 28.737 138.906 28.6504 139.335 28.5137L139.513 28.4727L139.69 28.418C139.818 28.3633 139.873 28.263 139.854 28.1172C139.836 27.9805 139.759 27.8939 139.622 27.8574L139.444 27.8164H139.253L133.757 27.6113C133.511 27.6113 133.255 27.7572 132.991 28.0488C132.727 28.3314 132.595 28.6048 132.595 28.8691L132.636 30.8242L132.677 32.7793C132.704 34.3197 132.695 35.623 132.649 36.6895C132.613 37.6921 132.631 38.8633 132.704 40.2031L132.8 41.9531L132.909 43.7031C133.091 46.6289 133.069 48.9668 132.841 50.7168C132.722 51.4186 133.009 52.0202 133.702 52.5215C134.386 53.0137 135.06 53.1276 135.725 52.8633C137.074 52.3164 139.071 51.9609 141.714 51.7969L142.288 51.7695L142.862 51.7559C143.309 51.7194 143.687 51.6283 143.997 51.4824L144.12 51.4141L144.243 51.332C144.316 51.2591 144.343 51.1725 144.325 51.0723C144.298 50.972 144.238 50.8945 144.147 50.8398C144.056 50.7852 143.965 50.7669 143.874 50.7852C143.546 50.8398 143.172 50.8535 142.753 50.8262L141.618 50.7168C140.661 50.6165 139.909 50.653 139.362 50.8262C138.916 50.972 138.788 50.8171 138.979 50.3613C139.298 49.6048 139.426 48.8118 139.362 47.9824L139.28 46.6016L139.212 45.2207L139.157 44.3457L139.102 43.4844C139.048 42.8099 138.925 42.2493 138.733 41.8027C138.451 41.1465 138.241 40.3809 138.104 39.5059L137.968 38.3301L137.858 37.1543C137.831 36.7897 137.986 36.6029 138.323 36.5938C138.706 36.5938 139.262 36.5573 139.991 36.4844L140.825 36.416L141.659 36.375H143.354C144.02 36.3659 144.585 36.3021 145.05 36.1836C145.305 36.1107 145.442 36.0104 145.46 35.8828C145.487 35.7552 145.455 35.6595 145.364 35.5957L145.227 35.5273L145.091 35.4863ZM154.578 38.3574L154.592 38.8496C154.601 38.9954 154.628 39.1367 154.674 39.2734C154.719 39.4375 154.819 39.4876 154.974 39.4238L155.426 39.2324L155.863 39.0137C156.191 38.8496 156.46 38.6628 156.67 38.4531C156.952 38.1888 157.112 37.8926 157.148 37.5645C157.23 36.7988 157.198 36.1243 157.052 35.541C156.806 34.6113 156.269 33.8776 155.439 33.3398C155.202 33.194 154.979 33.1667 154.769 33.2578L154.619 33.3125L154.455 33.3672C154.327 33.4128 154.268 33.5085 154.277 33.6543L154.496 36.7168L154.592 38.3574H154.578ZM154.783 43.457C154.601 44.6602 154.532 45.6901 154.578 46.5469C154.587 46.793 154.564 47.0846 154.51 47.4219C154.464 47.6953 154.446 48.0007 154.455 48.3379L154.427 49.3086L154.373 50.252L154.345 54.2578C154.345 54.6953 154.282 55.0508 154.154 55.3242L154.045 55.5703L153.949 55.8301C153.876 56.0397 153.799 56.2038 153.717 56.3223L153.607 56.4863L153.498 56.6367C153.306 56.8555 153.074 56.9056 152.801 56.7871L152.035 56.4316L151.269 56.0762C150.759 55.8483 150.467 55.4154 150.394 54.7773L150.299 53.6973L150.203 52.7129L150.148 51.7285L150.107 50.8809L150.011 50.0332L149.711 47.3672C149.656 46.9206 149.61 46.3646 149.574 45.6992L149.465 44.0449C149.392 42.9694 149.36 41.7161 149.369 40.2852L149.396 38.4121L149.424 36.5391L149.465 34.1738L149.506 31.8223C149.515 31.3483 149.647 30.9564 149.902 30.6465C150.121 30.3822 150.385 30.25 150.695 30.25C151.087 30.2591 151.379 30.2819 151.57 30.3184L152.213 30.4414L152.855 30.5781C153.11 30.6328 153.302 30.7878 153.429 31.043C153.612 31.4167 153.794 31.6901 153.976 31.8633L154.058 31.9727L154.113 32.0957C154.232 32.3327 154.423 32.4238 154.687 32.3691L154.797 32.3555L154.906 32.3281C155.344 32.1732 155.808 32.2507 156.301 32.5605C156.774 32.8522 157.303 33.4219 157.886 34.2695C158.315 34.8802 158.579 35.4954 158.679 36.1152C158.816 36.9538 158.689 37.7467 158.297 38.4941C158.215 38.6582 158.078 38.8496 157.886 39.0684L157.668 39.3418L157.463 39.6289C157.372 39.7565 157.212 39.875 156.984 39.9844L156.629 40.1348C156.41 40.2441 156.355 40.4036 156.465 40.6133L156.793 41.2969L157.148 41.9805L157.613 42.7324L158.078 43.4707L158.187 43.6348L158.283 43.7852C158.593 44.3594 159.012 45.0612 159.541 45.8906L160.183 46.916L160.84 47.9414L161.058 48.2559C161.286 48.5475 161.532 48.8984 161.797 49.3086L162.494 50.3887L163.342 51.7285C163.515 52.002 163.661 52.2982 163.779 52.6172C163.916 52.9909 163.934 53.2917 163.834 53.5195C163.797 53.6198 163.793 53.7246 163.82 53.834C163.857 53.9798 163.852 54.1348 163.806 54.2988L163.738 54.5176L163.656 54.7363C163.629 54.8184 163.565 54.8776 163.465 54.9141C163.219 55.0143 163.064 55.0553 163 55.0371C162.927 55.0189 162.813 54.9049 162.658 54.6953L162.412 54.3262C162.302 54.1165 162.152 53.9388 161.961 53.793C161.751 53.6289 161.56 53.4102 161.386 53.1367L160.758 52.1797L160.552 51.9199C160.297 51.6465 159.997 51.2773 159.65 50.8125L159.226 50.2383L158.802 49.6777C158.155 48.8665 157.659 48.1875 157.312 47.6406L156.711 46.7246L156.095 45.8223C155.758 45.3301 155.462 44.806 155.207 44.25L155.015 43.8535L154.783 43.457ZM183.177 53.082C183.077 53.1094 182.949 53.1185 182.794 53.1094L182.398 53.0684C182.061 53.0501 181.801 53.1367 181.619 53.3281L181.55 53.3555L181.468 53.3418C180.876 53.0592 180.16 52.9225 179.322 52.9316L178.214 52.9863L177.121 53.0547L176.929 53L176.751 52.9316L176.492 52.918L176.218 52.877C176.027 52.8405 175.936 52.763 175.945 52.6445C175.963 52.4896 176.077 52.3893 176.287 52.3438L176.587 52.3027L176.861 52.2617L177.722 52.125L178.584 52.0293C178.83 52.002 178.939 51.8971 178.912 51.7148C178.802 50.9583 178.761 50.0059 178.789 48.8574L178.843 47.4219L178.871 46L178.802 40.6953L178.707 35.3906C178.697 35.0807 178.661 34.6934 178.597 34.2285L178.433 33.0527C178.406 32.8249 178.278 32.7565 178.05 32.8477C177.713 32.9844 177.335 33.0391 176.916 33.0117C176.934 32.8477 177.011 32.679 177.148 32.5059L177.326 32.3008L177.503 32.0957L178.037 31.4258L178.57 30.7695C178.998 30.25 179.395 29.8353 179.759 29.5254C180.434 28.9512 181.104 28.901 181.769 29.375C182.462 29.8672 182.808 30.4505 182.808 31.125L182.794 34.7754L182.753 38.4258V42.1992V45.9863L182.685 48.7207C182.649 49.8327 182.635 50.7441 182.644 51.4551C182.644 51.7832 182.799 51.9655 183.109 52.002L183.82 52.0703L184.531 52.166C184.713 52.1934 184.859 52.248 184.968 52.3301C185.114 52.4303 185.187 52.5534 185.187 52.6992C185.187 52.8542 185.114 52.959 184.968 53.0137L184.763 53.0547L184.558 53.0684L183.888 53.082H183.177Z" fill="white"/>
</svg>
