<svg width="237" height="81" viewBox="0 0 237 81" fill="none" xmlns="http://www.w3.org/2000/svg">
<path d="M66.0265 11.692C35.2938 7.21877 10.5369 24.3661 2 33.499C2 38.7178 4.56106 53.6286 14.8053 71.5215H51.5509C73.821 71.5215 66.0265 78.7905 105.556 71.5215C118.361 64.2525 117.248 71.5215 138.404 71.5215C159.561 71.5215 148.426 80.4679 169.582 78.7905C190.739 77.113 203.544 75.9947 220.804 71.5215C238.063 67.0483 231.939 57.5427 234.722 33.499C237.506 9.45529 219.133 33.499 189.625 11.692C160.118 -10.115 174.036 11.692 148.426 11.692C122.815 11.692 104.442 17.2835 66.0265 11.692Z" fill="#703F3F" stroke="#945858" stroke-width="4"/>
<path d="M57.3227 47.9551L57.3091 48.0098L57.1723 50.1289L57.1177 51.0996L57.0903 51.3594L57.0766 51.6191C57.104 52.002 57.0311 52.3939 56.8579 52.7949C56.7941 52.9499 56.744 53.1048 56.7075 53.2598C56.5799 53.8613 56.2609 54.4993 55.7505 55.1738L55.2309 55.9258C55.0942 56.1354 54.9438 56.2767 54.7798 56.3496C54.5337 56.459 54.3104 56.6185 54.1098 56.8281C53.9458 57.0013 53.7134 57.097 53.4126 57.1152C52.8566 57.1426 52.2505 57.015 51.5942 56.7324C51.3117 56.6048 50.9881 56.4316 50.6235 56.2129L50.145 55.9258L49.6802 55.625C49.2335 55.3516 48.869 55.0189 48.5864 54.627C47.994 53.8158 47.6066 53.0273 47.4243 52.2617C47.1235 50.9401 46.9458 49.6003 46.8911 48.2422L46.8364 46.2734L46.8091 44.291V42.5137L46.8364 40.7227V40.627L46.9868 38.9043C47.0506 38.2116 47.1144 37.6328 47.1782 37.168C47.3969 35.5638 48.0805 34.1966 49.229 33.0664C49.4751 32.8294 49.7759 32.5697 50.1313 32.2871L51.061 31.5762C51.1886 31.4759 51.3162 31.403 51.4438 31.3574C52.1001 31.1296 52.6971 31.0566 53.2348 31.1387C53.49 31.1751 53.6951 31.2891 53.8501 31.4805L54.1919 31.9453L54.3423 32.1777L54.4927 32.3965C54.7387 32.7064 54.9119 33.112 55.0122 33.6133C55.1124 34.0781 55.1489 34.4974 55.1216 34.8711C55.1033 35.0169 55.1079 35.1855 55.1352 35.377L55.2036 35.8691L55.2993 36.6211L55.3266 37.3594C55.3449 37.6602 55.3039 37.8971 55.2036 38.0703C55.1762 38.1159 55.1398 38.1387 55.0942 38.1387L55.0259 38.125L54.9848 38.0703L54.8208 37.5645L54.7524 37.2363L54.6841 36.9082L54.6294 36.6758L54.5473 36.4434L54.2739 35.8281L54.0278 35.1992C53.6815 34.388 53.2667 33.7454 52.7837 33.2715C52.6743 33.1621 52.5558 33.153 52.4282 33.2441C52.091 33.5085 51.8358 33.8184 51.6626 34.1738L51.5259 34.4473L51.4028 34.7344C51.3117 34.9531 51.257 35.1536 51.2387 35.3359L51.2524 35.7324L51.2661 36.1152L51.2387 36.2793L51.1841 36.457C51.1476 36.6029 51.1294 36.7214 51.1294 36.8125C51.1294 37.0495 51.0929 37.3548 51.02 37.7285C50.9562 38.0566 50.9471 38.4395 50.9927 38.877L51.061 39.8887L51.102 40.9004L51.1841 42.9102L51.2387 43.8125L51.2798 44.7012L51.3755 46.1367L51.4848 47.5859L51.5122 47.9414L51.5259 48.2969L51.5532 48.7617L51.6079 49.2129L51.7446 50.1426C51.8084 50.4889 51.8859 50.7943 51.977 51.0586C52.132 51.487 52.3006 51.847 52.4829 52.1387C52.7108 52.5033 52.9295 52.7812 53.1391 52.9727C53.4217 53.2461 53.7225 53.2598 54.0415 53.0137C54.5519 52.64 54.9302 52.2936 55.1762 51.9746C55.395 51.6829 55.5499 51.3138 55.6411 50.8672C55.7322 50.3385 55.8644 49.7279 56.0376 49.0352L56.1196 48.6113C56.1925 48.1283 56.2882 47.7363 56.4067 47.4355C56.4523 47.3353 56.4887 47.1986 56.5161 47.0254L56.5708 46.5879L56.5844 46.5059L56.5981 46.4238C56.6164 46.36 56.6528 46.319 56.7075 46.3008C56.7713 46.2826 56.8305 46.2962 56.8852 46.3418L56.9399 46.4238L57.0083 46.4922L57.0766 46.5879L57.145 46.6836C57.3729 46.957 57.4503 47.2897 57.3774 47.6816L57.3501 47.7773L57.3227 47.9277V47.9551ZM76.8998 30.2773C76.6992 29.5391 76.2936 29.1152 75.683 29.0059C74.9538 28.8783 74.2975 29.0059 73.7142 29.3887C73.1309 29.7897 72.8301 30.3138 72.8119 30.9609L72.6752 34.0098L72.5521 37.0449C72.5339 37.5371 72.3334 37.9245 71.9505 38.207C71.3399 38.6354 70.6107 38.9225 69.763 39.0684C69.4258 39.1322 69.0384 39.1777 68.6009 39.2051L67.4252 39.2461C67.2702 39.2461 67.1745 39.1868 67.138 39.0684L67.1107 38.8906V38.7129L67.0834 37.1133C67.0742 36.4753 67.0469 35.9466 67.0013 35.5273L66.7279 32.8887L66.3998 30.25L66.3587 29.8809L66.3177 29.5117C66.2904 29.2292 66.2403 29.0013 66.1673 28.8281C65.985 28.3633 65.5931 28.0944 64.9916 28.0215L64.2259 27.9395L63.4603 27.8984C62.8861 27.9167 62.403 28.0807 62.0111 28.3906C61.6283 28.6914 61.4505 29.0514 61.4779 29.4707C61.5781 30.9564 61.6237 32.8522 61.6146 35.1582L61.6009 37.9883L61.6146 40.832L61.683 44.332L61.7103 47.8457C61.6921 50.4707 61.5873 52.804 61.3959 54.8457C61.3685 55.1647 61.4551 55.4017 61.6556 55.5566C61.8653 55.7116 62.0886 55.7025 62.3255 55.5293C62.6446 55.3014 63.0912 55.2422 63.6654 55.3516C64.6406 55.543 65.2832 55.224 65.5931 54.3945C65.9121 53.5651 66.1263 52.7721 66.2357 52.0156C66.4636 50.375 66.6367 48.5156 66.7552 46.4375L66.8783 43.6484L66.9877 40.8594C66.9968 40.4036 67.2383 40.1986 67.7123 40.2441L68.724 40.3672L69.7357 40.4629C70.5104 40.5176 71.1849 40.4492 71.7591 40.2578C72.1055 40.1393 72.2878 40.2943 72.306 40.7227L72.388 42.5L72.4837 44.2637V46.8477C72.5111 47.8411 72.6068 48.6934 72.7709 49.4043L72.7982 49.5684L72.8255 49.7598C72.862 49.8874 72.9304 49.9329 73.0306 49.8965C73.14 49.8509 73.2767 49.819 73.4408 49.8008L73.8509 49.7598C74.1882 49.7142 74.4434 49.5866 74.6166 49.377C74.8171 49.1217 75.0723 48.985 75.3822 48.9668C76.0567 48.9303 76.4759 48.5749 76.64 47.9004C76.9043 46.7611 77.1185 45.3574 77.2826 43.6895L77.5834 40.3262C77.6745 39.0866 77.7201 37.9701 77.7201 36.9766C77.7292 34.4883 77.4558 32.2552 76.8998 30.2773ZM88.1096 38.002C87.9911 38.3848 87.8909 38.8223 87.8088 39.3145L87.6448 40.6133L87.5491 41.5977C87.5035 41.9714 87.4488 42.2995 87.385 42.582L87.344 42.8828C87.3257 43.0378 87.3941 43.1152 87.5491 43.1152C87.6675 43.1152 87.786 43.1016 87.9045 43.0742L89.1897 42.7871C89.4631 42.7233 89.5634 42.5456 89.4905 42.2539L89.3674 41.8164L88.9983 40.709L88.7112 39.7656L88.4104 38.8086L88.2737 38.4121L88.1096 38.002ZM81.7385 52.9727L81.7522 52.5215C81.7431 52.3392 81.7522 52.1341 81.7795 51.9062C81.816 51.6693 81.8342 51.4323 81.8342 51.1953C81.8069 50.5482 81.8798 49.6003 82.053 48.3516L82.217 46.9297L82.3811 45.3027L82.5452 43.6895L82.6272 43.1562L82.7092 42.623L82.8733 40.9551L83.051 39.2734L83.1604 38.3711L83.2834 37.4551L83.3928 36.6074L83.5159 35.7598C83.607 35.0853 83.6571 34.5202 83.6662 34.0645L83.7073 33.7363L83.7619 33.4082L83.967 31.6855C83.9944 31.4303 84.1037 31.2708 84.2952 31.207C84.5595 31.1068 84.7828 30.9108 84.9651 30.6191L85.0471 30.5098L85.1291 30.4141C85.2294 30.3138 85.3205 30.3001 85.4026 30.373C85.4937 30.4368 85.6304 30.5052 85.8127 30.5781L86.0315 30.6602L86.2229 30.7695C86.3961 30.888 86.6057 30.9518 86.8518 30.9609C87.4534 30.9701 87.9 31.3073 88.1916 31.9727C88.5653 32.8203 88.9755 34.0462 89.4221 35.6504L89.6955 36.5801L89.9416 37.5098L90.0784 37.9062L90.2151 38.2891L90.4748 39.082L90.7346 39.8887C90.9534 40.5449 91.1129 41.0827 91.2131 41.502C91.3043 41.8392 91.441 42.1855 91.6233 42.541L91.8147 43.0195L91.9787 43.498L92.6623 45.207L92.7444 45.3711L92.7854 45.5352C92.8036 45.8086 92.8765 46.1094 93.0041 46.4375L93.1682 46.8477L93.3596 47.2715C93.5237 47.6178 93.6968 48.028 93.8791 48.502L94.3303 49.7461C94.4761 50.138 94.6493 50.5618 94.8498 51.0176C94.9683 51.291 95.0504 51.5827 95.0959 51.8926C95.1142 52.0202 95.1142 52.1569 95.0959 52.3027C95.0504 52.6491 94.8498 52.8496 94.4944 52.9043C94.3394 52.9316 94.2209 52.8861 94.1389 52.7676L93.8108 52.3164L93.4827 51.8652C93.2183 51.5098 93.0224 51.1908 92.8948 50.9082L92.3616 49.8145L91.842 48.7207C91.4592 47.8822 91.1493 47.1348 90.9123 46.4785L90.5569 45.4668L90.2014 44.4551L90.1604 44.3184L90.1057 44.168C90.0419 44.0039 89.9097 43.9355 89.7092 43.9629C88.9709 44.0632 88.3785 44.0859 87.9319 44.0312C87.622 43.9857 87.4169 44.0039 87.3166 44.0859C87.2164 44.168 87.1435 44.3639 87.0979 44.6738L86.2502 50.0059L86.1135 50.6621L85.7991 52.002C85.635 52.8223 85.3935 53.4694 85.0744 53.9434C84.9924 54.071 84.9286 54.2487 84.883 54.4766C84.8284 54.7682 84.6415 55.0326 84.3225 55.2695C84.0035 55.4974 83.6936 55.6022 83.3928 55.584L82.7366 55.5566C82.5634 55.5658 82.3993 55.5202 82.2444 55.4199L82.053 55.2695L81.8616 55.0918C81.6793 54.9186 81.5972 54.668 81.6155 54.3398L81.7385 52.9727ZM109.669 34.0371C109.605 34.584 109.432 35.2721 109.15 36.1016C109.031 36.4297 108.849 36.7168 108.603 36.9629C108.192 37.373 107.801 37.7832 107.427 38.1934C106.798 38.8861 106.023 39.474 105.103 39.957L104.952 40.0391C104.797 40.112 104.711 40.0573 104.692 39.875L104.665 39.6562C104.729 39.082 104.674 38.3984 104.501 37.6055L104.46 37.332L104.446 37.0586L104.378 36.3887C104.351 36.1335 104.301 35.9102 104.228 35.7188L104.2 35.5C104.137 34.7617 103.877 33.7454 103.421 32.4512L103.038 31.3711C102.874 30.9792 102.71 30.6328 102.546 30.332C102.263 29.8581 102.304 29.4115 102.669 28.9922C103.225 28.3633 103.717 27.9805 104.146 27.8438C104.355 27.7708 104.661 27.7161 105.062 27.6797C105.8 27.5612 106.538 27.7936 107.276 28.377C108.115 29.015 108.762 29.8535 109.218 30.8926C109.291 31.0566 109.364 31.2708 109.437 31.5352L109.601 32.2051C109.737 32.6426 109.76 33.2533 109.669 34.0371ZM111.528 33.9551C111.519 33.6908 111.474 33.4219 111.392 33.1484C111.301 32.8112 111.223 32.474 111.159 32.1367C110.986 31.2161 110.644 30.3594 110.134 29.5664C109.56 28.6914 108.867 28.0397 108.056 27.6113C107.855 27.502 107.618 27.4062 107.345 27.3242L106.62 27.1055C105.864 26.8867 105.125 26.8229 104.405 26.9141C103.457 27.0508 102.646 27.4245 101.972 28.0352L101.616 28.377C101.434 28.5866 101.238 28.6139 101.028 28.459C100.737 28.2493 100.377 28.2357 99.9484 28.418L99.7706 28.4727L99.5929 28.541C99.4015 28.6139 99.2374 28.7279 99.1007 28.8828C98.9275 29.0742 98.8728 29.2702 98.9366 29.4707L99.005 29.7715L99.0597 30.0586C99.3514 31.2982 99.479 32.4694 99.4425 33.5723L99.4562 33.9004L99.4972 34.2285L99.5245 34.3926L99.5519 34.5566L99.6066 36.6211L99.6339 37.6602L99.9757 41.8984C99.9939 42.2174 99.9985 42.4909 99.9894 42.7188C99.9529 43.1836 99.9392 43.7396 99.9484 44.3867L99.9894 46.041L100.017 48.502L100.03 50.3203C100.049 51.0039 100.085 51.6146 100.14 52.1523L100.263 53.7793L100.276 53.9707L100.304 54.1621C100.386 54.5267 100.605 54.6908 100.96 54.6543C101.151 54.627 101.398 54.5586 101.698 54.4492L102.368 54.1484C102.642 54.0299 102.874 53.9479 103.066 53.9023C103.184 53.8659 103.303 53.8021 103.421 53.7109L103.722 53.4238L103.859 53.2598L103.995 53.082C104.624 52.362 104.952 51.5553 104.98 50.6621C104.998 49.9694 105.075 49.3177 105.212 48.707C105.312 48.2513 105.326 47.7135 105.253 47.0938C105.207 46.7201 105.207 46.3919 105.253 46.1094C105.317 45.6172 105.326 45.1432 105.28 44.6875L105.239 44.373V44.0449C105.276 43.5436 105.248 42.8509 105.157 41.9668L105.116 41.543C105.107 41.3151 105.221 41.1829 105.458 41.1465L105.732 41.1055C106.105 41.0872 106.484 40.9733 106.866 40.7637C107.222 40.5723 107.5 40.4355 107.7 40.3535C108.284 40.1348 108.849 39.752 109.396 39.2051L110.599 37.9336C111.036 37.4688 111.287 37.0358 111.351 36.6348L111.392 36.498L111.46 36.375C111.542 36.2201 111.579 36.0286 111.569 35.8008L111.528 33.9551ZM126.854 26.9551L126.156 26.873L123.162 26.7227L122.055 26.6816L120.934 26.6953C119.512 26.7956 118.053 27.0508 116.559 27.4609C116.048 27.6068 115.492 27.7161 114.891 27.7891L114.562 27.8438L114.248 27.8984C113.501 28.099 112.607 28.2949 111.568 28.4863L111.186 28.5547L110.803 28.6094C110.557 28.6549 110.461 28.7279 110.516 28.8281C110.543 28.8828 110.589 28.9193 110.652 28.9375L110.816 28.9648C111.591 29.0286 112.179 29.0332 112.58 28.9785C112.999 28.9238 113.446 28.8874 113.92 28.8691L114.631 28.8555H115.355C115.921 28.8372 116.399 28.7962 116.791 28.7324L116.955 28.7188C117.074 28.7279 117.142 28.7871 117.16 28.8965L117.188 29.1289C117.178 30.1589 117.219 31.1341 117.311 32.0547L117.338 32.6699L117.324 33.2852L117.352 34.4883L117.393 35.6914L117.447 36.9492L117.461 38.207L117.475 39.7383L117.461 41.2559L117.393 44.9473L117.338 45.8359L117.297 46.7109L117.311 48.9668L117.324 51.2227C117.324 52.3711 117.393 53.2689 117.529 53.916L117.598 54.4629L117.68 55.0098L117.762 55.3242L117.857 55.625C117.939 55.8893 118.113 56.026 118.377 56.0352C118.523 56.0443 118.691 56.0762 118.883 56.1309C119.12 56.1947 119.37 56.1855 119.635 56.1035L120.195 55.8984C120.414 55.8073 120.619 55.748 120.811 55.7207C121.221 55.6569 121.499 55.4336 121.645 55.0508C121.781 54.6771 122.009 54.2715 122.328 53.834C122.565 53.4967 122.725 53.0592 122.807 52.5215L122.957 51.3594L123.135 49.8555C123.171 49.5911 123.185 49.2858 123.176 48.9395L123.148 48.0371C123.13 47.3171 123.089 46.6745 123.025 46.1094L122.943 45.3164L122.889 44.5234C122.88 43.3294 122.77 42.1035 122.561 40.8457C122.515 40.5449 122.483 40.1576 122.465 39.6836L122.41 38.5078L122.383 37.7559L122.355 36.9902L122.26 35.5L122.205 34.0098C122.205 33.791 122.178 33.6178 122.123 33.4902C121.913 33.0345 121.85 32.5605 121.932 32.0684L121.945 31.8086L121.932 31.5352C121.904 31.2617 121.909 31.0293 121.945 30.8379C122 30.61 121.991 30.3001 121.918 29.9082L121.836 29.3613L121.781 28.8008C121.763 28.6458 121.84 28.5592 122.014 28.541L122.191 28.5273C122.993 28.4727 123.745 28.3542 124.447 28.1719C125.204 27.9805 125.801 27.8984 126.238 27.9258L126.799 27.8984L127.346 27.8164C127.592 27.7799 127.715 27.6478 127.715 27.4199C127.715 27.2741 127.615 27.1693 127.414 27.1055L126.854 26.9551ZM142.835 35.4863C140.365 34.8574 138.082 34.7344 135.985 35.1172C135.384 35.2266 134.996 35.0033 134.823 34.4473L134.659 33.8457L134.454 32.7109L134.249 31.5625C134.085 30.6602 133.871 29.9173 133.606 29.334C133.46 29.0059 133.588 28.8327 133.989 28.8145L134.768 28.8008L135.548 28.7734C136.14 28.737 136.651 28.6504 137.079 28.5137L137.257 28.4727L137.434 28.418C137.562 28.3633 137.617 28.263 137.599 28.1172C137.58 27.9805 137.503 27.8939 137.366 27.8574L137.188 27.8164H136.997L131.501 27.6113C131.255 27.6113 131 27.7572 130.735 28.0488C130.471 28.3314 130.339 28.6048 130.339 28.8691L130.38 30.8242L130.421 32.7793C130.448 34.3197 130.439 35.623 130.393 36.6895C130.357 37.6921 130.375 38.8633 130.448 40.2031L130.544 41.9531L130.653 43.7031C130.835 46.6289 130.813 48.9668 130.585 50.7168C130.466 51.4186 130.753 52.0202 131.446 52.5215C132.13 53.0137 132.804 53.1276 133.47 52.8633C134.819 52.3164 136.815 51.9609 139.458 51.7969L140.032 51.7695L140.606 51.7559C141.053 51.7194 141.431 51.6283 141.741 51.4824L141.864 51.4141L141.987 51.332C142.06 51.2591 142.087 51.1725 142.069 51.0723C142.042 50.972 141.983 50.8945 141.891 50.8398C141.8 50.7852 141.709 50.7669 141.618 50.7852C141.29 50.8398 140.916 50.8535 140.497 50.8262L139.362 50.7168C138.405 50.6165 137.653 50.653 137.106 50.8262C136.66 50.972 136.532 50.8171 136.724 50.3613C137.043 49.6048 137.17 48.8118 137.106 47.9824L137.024 46.6016L136.956 45.2207L136.901 44.3457L136.847 43.4844C136.792 42.8099 136.669 42.2493 136.477 41.8027C136.195 41.1465 135.985 40.3809 135.849 39.5059L135.712 38.3301L135.602 37.1543C135.575 36.7897 135.73 36.6029 136.067 36.5938C136.45 36.5938 137.006 36.5573 137.735 36.4844L138.569 36.416L139.403 36.375H141.099C141.764 36.3659 142.329 36.3021 142.794 36.1836C143.049 36.1107 143.186 36.0104 143.204 35.8828C143.231 35.7552 143.199 35.6595 143.108 35.5957L142.972 35.5273L142.835 35.4863ZM152.322 38.3574L152.336 38.8496C152.345 38.9954 152.372 39.1367 152.418 39.2734C152.463 39.4375 152.564 39.4876 152.719 39.4238L153.17 39.2324L153.607 39.0137C153.935 38.8496 154.204 38.6628 154.414 38.4531C154.696 38.1888 154.856 37.8926 154.892 37.5645C154.974 36.7988 154.942 36.1243 154.797 35.541C154.551 34.6113 154.013 33.8776 153.183 33.3398C152.946 33.194 152.723 33.1667 152.513 33.2578L152.363 33.3125L152.199 33.3672C152.071 33.4128 152.012 33.5085 152.021 33.6543L152.24 36.7168L152.336 38.3574H152.322ZM152.527 43.457C152.345 44.6602 152.276 45.6901 152.322 46.5469C152.331 46.793 152.308 47.0846 152.254 47.4219C152.208 47.6953 152.19 48.0007 152.199 48.3379L152.172 49.3086L152.117 50.252L152.09 54.2578C152.09 54.6953 152.026 55.0508 151.898 55.3242L151.789 55.5703L151.693 55.8301C151.62 56.0397 151.543 56.2038 151.461 56.3223L151.351 56.4863L151.242 56.6367C151.051 56.8555 150.818 56.9056 150.545 56.7871L149.779 56.4316L149.013 56.0762C148.503 55.8483 148.211 55.4154 148.138 54.7773L148.043 53.6973L147.947 52.7129L147.892 51.7285L147.851 50.8809L147.756 50.0332L147.455 47.3672C147.4 46.9206 147.355 46.3646 147.318 45.6992L147.209 44.0449C147.136 42.9694 147.104 41.7161 147.113 40.2852L147.14 38.4121L147.168 36.5391L147.209 34.1738L147.25 31.8223C147.259 31.3483 147.391 30.9564 147.646 30.6465C147.865 30.3822 148.129 30.25 148.439 30.25C148.831 30.2591 149.123 30.2819 149.314 30.3184L149.957 30.4414L150.599 30.5781C150.855 30.6328 151.046 30.7878 151.174 31.043C151.356 31.4167 151.538 31.6901 151.72 31.8633L151.802 31.9727L151.857 32.0957C151.976 32.3327 152.167 32.4238 152.431 32.3691L152.541 32.3555L152.65 32.3281C153.088 32.1732 153.552 32.2507 154.045 32.5605C154.519 32.8522 155.047 33.4219 155.631 34.2695C156.059 34.8802 156.323 35.4954 156.424 36.1152C156.56 36.9538 156.433 37.7467 156.041 38.4941C155.959 38.6582 155.822 38.8496 155.631 39.0684L155.412 39.3418L155.207 39.6289C155.116 39.7565 154.956 39.875 154.728 39.9844L154.373 40.1348C154.154 40.2441 154.099 40.4036 154.209 40.6133L154.537 41.2969L154.892 41.9805L155.357 42.7324L155.822 43.4707L155.931 43.6348L156.027 43.7852C156.337 44.3594 156.756 45.0612 157.285 45.8906L157.927 46.916L158.584 47.9414L158.802 48.2559C159.03 48.5475 159.276 48.8984 159.541 49.3086L160.238 50.3887L161.086 51.7285C161.259 52.002 161.405 52.2982 161.523 52.6172C161.66 52.9909 161.678 53.2917 161.578 53.5195C161.541 53.6198 161.537 53.7246 161.564 53.834C161.601 53.9798 161.596 54.1348 161.551 54.2988L161.482 54.5176L161.4 54.7363C161.373 54.8184 161.309 54.8776 161.209 54.9141C160.963 55.0143 160.808 55.0553 160.744 55.0371C160.671 55.0189 160.557 54.9049 160.402 54.6953L160.156 54.3262C160.047 54.1165 159.896 53.9388 159.705 53.793C159.495 53.6289 159.304 53.4102 159.131 53.1367L158.502 52.1797L158.297 51.9199C158.041 51.6465 157.741 51.2773 157.394 50.8125L156.97 50.2383L156.547 49.6777C155.899 48.8665 155.403 48.1875 155.056 47.6406L154.455 46.7246L153.84 45.8223C153.502 45.3301 153.206 44.806 152.951 44.25L152.76 43.8535L152.527 43.457ZM186.705 51.9336L186.335 51.8105C186.026 51.6921 185.779 51.6328 185.597 51.6328L182.07 51.4551L178.556 51.2637C178.265 51.2546 178.164 51.0996 178.255 50.7988C178.328 50.5436 178.465 50.252 178.666 49.9238L178.912 49.5L179.144 49.0898L181.318 44.9062L183.451 40.7227L184.367 38.8906C184.695 38.1979 184.973 37.5781 185.201 37.0312C185.784 35.6185 186.176 34.3014 186.376 33.0801C186.604 31.6582 186.313 30.724 185.501 30.2773L184.736 29.8535L183.957 29.457C183.355 29.1745 182.781 28.9922 182.234 28.9102C180.21 28.582 178.538 29.2109 177.216 30.7969C176.733 31.3802 176.414 31.9727 176.259 32.5742C176.205 32.7747 176.259 32.9434 176.423 33.0801L176.492 33.1348L176.56 33.1895C176.624 33.2259 176.679 33.2214 176.724 33.1758L176.916 33.0527L177.107 32.9297C177.262 32.8294 177.376 32.7246 177.449 32.6152C178.105 31.6035 178.793 30.7786 179.513 30.1406C179.787 29.8945 180.133 29.7396 180.552 29.6758C180.981 29.6029 181.35 29.6484 181.66 29.8125C181.979 29.9766 182.17 30.2181 182.234 30.5371C182.261 30.6556 182.275 30.8014 182.275 30.9746L182.248 31.4258C182.248 32.0456 182.125 32.7155 181.878 33.4355C181.787 33.709 181.669 34.0189 181.523 34.3652L181.113 35.2949C179.49 38.9499 177.777 42.1719 175.972 44.9609C175.699 45.3802 175.434 45.9772 175.179 46.752L174.878 47.6543C174.76 48.0007 174.641 48.2969 174.523 48.543C173.958 49.6732 173.876 50.6029 174.277 51.332C174.669 52.0521 175.115 52.4896 175.617 52.6445C176.428 52.8906 177.134 53.0091 177.736 53L180.429 52.9453H183.109C184.467 52.9544 185.725 52.8678 186.882 52.6855L187.019 52.6719L187.156 52.6309C187.238 52.5944 187.288 52.526 187.306 52.4258C187.315 52.3346 187.302 52.248 187.265 52.166C187.22 52.0749 187.156 52.0247 187.074 52.0156L186.705 51.9336Z" fill="white"/>
</svg>
